# WaveFront *.obj file (generated by CINEMA 4D)

v -100 -31.12709999084473 100
v -100 31.12709999084473 100
v 100 -11.10531044006348 39.49998474121094
v 100 11.10531044006348 39.49998474121094
v 100 -11.10531044006348 -39.49998474121094
v 100 11.10531044006348 -39.49998474121094
v -100 -31.12709999084473 -100
v -100 31.12709999084473 -100
v -100 -20.23185920715332 74.54145812988281
v -100 20.23185920715332 74.54145812988281
v -100 -20.23185920715332 -74.54145812988281
v -100 20.23185920715332 -74.54145812988281
v -122.33437347412109 -20.23185920715332 74.54145812988281
v -122.33437347412109 20.23185920715332 74.54145812988281
v -122.33437347412109 -20.23185920715332 -74.54145812988281
v -122.33437347412109 20.23185920715332 -74.54145812988281
# 16 vertices

vn 0.28954255580902 0 0.95716512203217
vn 1 0 0
vn 0.28954255580902 0 -0.95716512203217
vn -1 0 0
vn 0.09961105138063 0.99502646923065 0
vn 0.09961105138063 -0.99502646923065 0
vn 0 -1 0
vn 0 0 1
vn 0 1 0
vn 0 0 -1
# 10 normals

vt 0 0 0
vt 0 1 0
vt 1 1 0
vt 1 0 0
# 4 texture coordinates

o Cube
usemtl default
f 3/4/1 4/3/1 2/2/1 1/1/1
f 5/4/2 6/3/2 4/2/2 3/1/2
f 7/4/3 8/3/3 6/2/3 5/1/3
f 13/4/4 14/3/4 16/2/4 15/1/4
f 4/4/5 6/3/5 8/2/5 2/1/5
f 5/4/6 3/3/6 1/2/6 7/1/6
f 1/4/4 9/4/4 11/1/4 7/1/4
f 2/3/4 10/3/4 9/4/4 1/4/4
f 8/2/4 12/2/4 10/3/4 2/3/4
f 7/1/4 11/1/4 12/2/4 8/2/4
f 9/4/7 13/4/7 15/1/7 11/1/7
f 10/3/8 14/3/8 13/4/8 9/4/8
f 12/2/9 16/2/9 14/3/9 10/3/9
f 11/1/10 15/1/10 16/2/10 12/2/10

